<svg width="44" height="44" viewBox="0 0 44 44" fill="none" xmlns="http://www.w3.org/2000/svg">
<rect x="0.5" y="0.5" width="43" height="43" rx="21.5" fill="white"/>
<rect x="0.5" y="0.5" width="43" height="43" rx="21.5" stroke="#E3E5E6"/>
<path d="M28.8571 23.1429H23.1429V28.8571C23.1429 29.1602 23.0224 29.4509 22.8081 29.6653C22.5938 29.8796 22.3031 30 22 30C21.6969 30 21.4062 29.8796 21.1919 29.6653C20.9776 29.4509 20.8571 29.1602 20.8571 28.8571V23.1429H15.1429C14.8398 23.1429 14.5491 23.0225 14.3347 22.8081C14.1204 22.5938 14 22.3031 14 22C14 21.6969 14.1204 21.4062 14.3347 21.1919C14.5491 20.9776 14.8398 20.8571 15.1429 20.8571H20.8571V15.1429C20.8571 14.8398 20.9776 14.5491 21.1919 14.3347C21.4062 14.1204 21.6969 14 22 14C22.3031 14 22.5938 14.1204 22.8081 14.3347C23.0224 14.5491 23.1429 14.8398 23.1429 15.1429V20.8571H28.8571C29.1602 20.8571 29.4509 20.9776 29.6653 21.1919C29.8796 21.4062 30 21.6969 30 22C30 22.3031 29.8796 22.5938 29.6653 22.8081C29.4509 23.0225 29.1602 23.1429 28.8571 23.1429Z" fill="#8A8A8A"/>
</svg>
