<svg width="44" height="44" viewBox="0 0 44 44" fill="none" xmlns="http://www.w3.org/2000/svg">
<rect width="44" height="44" fill="white"/>
<circle cx="22" cy="22" r="21.5" fill="white" stroke="#D0D0D0"/>
<path d="M30 22.75C30.4142 22.75 30.75 22.4142 30.75 22C30.75 21.5858 30.4142 21.25 30 21.25V22.75ZM14 21.25C13.5858 21.25 13.25 21.5858 13.25 22C13.25 22.4142 13.5858 22.75 14 22.75V21.25ZM17.472 27.5327C17.7662 27.8243 18.2411 27.8222 18.5327 27.528C18.8243 27.2338 18.8222 26.7589 18.528 26.4673L17.472 27.5327ZM16.237 25.2527L16.765 24.72H16.765L16.237 25.2527ZM16.237 18.7473L15.7091 18.2146H15.7091L16.237 18.7473ZM18.528 17.5327C18.8222 17.2411 18.8243 16.7662 18.5327 16.472C18.2411 16.1778 17.7662 16.1757 17.472 16.4673L18.528 17.5327ZM14.0199 22.3133L13.2759 22.4082L13.2759 22.4082L14.0199 22.3133ZM14.0199 21.6867L13.2759 21.5918L13.2759 21.5918L14.0199 21.6867ZM30 21.25H14V22.75H30V21.25ZM18.528 26.4673L16.765 24.72L15.7091 25.7854L17.472 27.5327L18.528 26.4673ZM16.765 19.28L18.528 17.5327L17.472 16.4673L15.7091 18.2146L16.765 19.28ZM16.765 24.72C16.0495 24.0109 15.5587 23.5228 15.2266 23.1093C14.904 22.7076 14.7933 22.4496 14.7639 22.2185L13.2759 22.4082C13.3547 23.0263 13.6496 23.5412 14.0571 24.0485C14.455 24.544 15.0186 25.1011 15.7091 25.7854L16.765 24.72ZM15.7091 18.2146C15.0186 18.8989 14.455 19.456 14.0571 19.9515C13.6496 20.4588 13.3547 20.9737 13.2759 21.5918L14.7639 21.7815C14.7933 21.5504 14.904 21.2924 15.2266 20.8907C15.5587 20.4772 16.0495 19.9891 16.765 19.28L15.7091 18.2146ZM14.7639 22.2185C14.7454 22.0734 14.7454 21.9266 14.7639 21.7815L13.2759 21.5918C13.2414 21.8629 13.2414 22.1371 13.2759 22.4082L14.7639 22.2185Z" fill="#8A8A8A"/>
</svg>
