<svg width="19" height="18" viewBox="0 0 19 18" fill="none" xmlns="http://www.w3.org/2000/svg">
<path d="M13.0624 2.67V1.5C13.0624 1.1925 12.8074 0.9375 12.4999 0.9375C12.1924 0.9375 11.9374 1.1925 11.9374 1.5V2.625H7.06243V1.5C7.06243 1.1925 6.80743 0.9375 6.49993 0.9375C6.19243 0.9375 5.93743 1.1925 5.93743 1.5V2.67C3.91243 2.8575 2.92993 4.065 2.77993 5.8575C2.76493 6.075 2.94493 6.255 3.15493 6.255H15.8449C16.0624 6.255 16.2424 6.0675 16.2199 5.8575C16.0699 4.065 15.0874 2.8575 13.0624 2.67Z" fill="#125B9A"/>
<path d="M15.5 7.37988H3.5C3.0875 7.37988 2.75 7.71738 2.75 8.12988V12.7499C2.75 14.9999 3.875 16.4999 6.5 16.4999H12.5C15.125 16.4999 16.25 14.9999 16.25 12.7499V8.12988C16.25 7.71738 15.9125 7.37988 15.5 7.37988ZM7.4075 13.6574C7.37 13.6874 7.3325 13.7249 7.295 13.7474C7.25 13.7774 7.205 13.7999 7.16 13.8149C7.115 13.8374 7.07 13.8524 7.025 13.8599C6.9725 13.8674 6.9275 13.8749 6.875 13.8749C6.7775 13.8749 6.68 13.8524 6.59 13.8149C6.4925 13.7774 6.4175 13.7249 6.3425 13.6574C6.2075 13.5149 6.125 13.3199 6.125 13.1249C6.125 12.9299 6.2075 12.7349 6.3425 12.5924C6.4175 12.5249 6.4925 12.4724 6.59 12.4349C6.725 12.3749 6.875 12.3599 7.025 12.3899C7.07 12.3974 7.115 12.4124 7.16 12.4349C7.205 12.4499 7.25 12.4724 7.295 12.5024C7.3325 12.5324 7.37 12.5624 7.4075 12.5924C7.5425 12.7349 7.625 12.9299 7.625 13.1249C7.625 13.3199 7.5425 13.5149 7.4075 13.6574ZM7.4075 11.0324C7.265 11.1674 7.07 11.2499 6.875 11.2499C6.68 11.2499 6.485 11.1674 6.3425 11.0324C6.2075 10.8899 6.125 10.6949 6.125 10.4999C6.125 10.3049 6.2075 10.1099 6.3425 9.96738C6.5525 9.75738 6.8825 9.68988 7.16 9.80988C7.2575 9.84738 7.34 9.89988 7.4075 9.96738C7.5425 10.1099 7.625 10.3049 7.625 10.4999C7.625 10.6949 7.5425 10.8899 7.4075 11.0324ZM10.0325 13.6574C9.89 13.7924 9.695 13.8749 9.5 13.8749C9.305 13.8749 9.11 13.7924 8.9675 13.6574C8.8325 13.5149 8.75 13.3199 8.75 13.1249C8.75 12.9299 8.8325 12.7349 8.9675 12.5924C9.245 12.3149 9.755 12.3149 10.0325 12.5924C10.1675 12.7349 10.25 12.9299 10.25 13.1249C10.25 13.3199 10.1675 13.5149 10.0325 13.6574ZM10.0325 11.0324C9.995 11.0624 9.9575 11.0924 9.92 11.1224C9.875 11.1524 9.83 11.1749 9.785 11.1899C9.74 11.2124 9.695 11.2274 9.65 11.2349C9.5975 11.2424 9.5525 11.2499 9.5 11.2499C9.305 11.2499 9.11 11.1674 8.9675 11.0324C8.8325 10.8899 8.75 10.6949 8.75 10.4999C8.75 10.3049 8.8325 10.1099 8.9675 9.96738C9.035 9.89988 9.1175 9.84738 9.215 9.80988C9.4925 9.68988 9.8225 9.75738 10.0325 9.96738C10.1675 10.1099 10.25 10.3049 10.25 10.4999C10.25 10.6949 10.1675 10.8899 10.0325 11.0324ZM12.6575 13.6574C12.515 13.7924 12.32 13.8749 12.125 13.8749C11.93 13.8749 11.735 13.7924 11.5925 13.6574C11.4575 13.5149 11.375 13.3199 11.375 13.1249C11.375 12.9299 11.4575 12.7349 11.5925 12.5924C11.87 12.3149 12.38 12.3149 12.6575 12.5924C12.7925 12.7349 12.875 12.9299 12.875 13.1249C12.875 13.3199 12.7925 13.5149 12.6575 13.6574ZM12.6575 11.0324C12.62 11.0624 12.5825 11.0924 12.545 11.1224C12.5 11.1524 12.455 11.1749 12.41 11.1899C12.365 11.2124 12.32 11.2274 12.275 11.2349C12.2225 11.2424 12.17 11.2499 12.125 11.2499C11.93 11.2499 11.735 11.1674 11.5925 11.0324C11.4575 10.8899 11.375 10.6949 11.375 10.4999C11.375 10.3049 11.4575 10.1099 11.5925 9.96738C11.6675 9.89988 11.7425 9.84738 11.84 9.80988C11.975 9.74988 12.125 9.73488 12.275 9.76488C12.32 9.77238 12.365 9.78738 12.41 9.80988C12.455 9.82488 12.5 9.84738 12.545 9.87738C12.5825 9.90738 12.62 9.93738 12.6575 9.96738C12.7925 10.1099 12.875 10.3049 12.875 10.4999C12.875 10.6949 12.7925 10.8899 12.6575 11.0324Z" fill="#125B9A"/>
</svg>
