<svg width="21" height="19" viewBox="0 0 21 19" fill="none" xmlns="http://www.w3.org/2000/svg">
<path d="M8.19998 6H8.20998M13.2 6H13.21M16.7 1C17.4956 1 18.2587 1.31607 18.8213 1.87868C19.3839 2.44129 19.7 3.20435 19.7 4V12C19.7 12.7956 19.3839 13.5587 18.8213 14.1213C18.2587 14.6839 17.4956 15 16.7 15H11.7L6.69998 18V15H4.69998C3.90433 15 3.14127 14.6839 2.57866 14.1213C2.01605 13.5587 1.69998 12.7956 1.69998 12V4C1.69998 3.20435 2.01605 2.44129 2.57866 1.87868C3.14127 1.31607 3.90433 1 4.69998 1H16.7Z" stroke="#8A8A8A" stroke-width="2" stroke-linecap="round" stroke-linejoin="round"/>
<path d="M8.19998 10C8.52586 10.3326 8.91483 10.5968 9.34411 10.7772C9.77339 10.9576 10.2343 11.0505 10.7 11.0505C11.1656 11.0505 11.6266 10.9576 12.0559 10.7772C12.4851 10.5968 12.8741 10.3326 13.2 10" stroke="#8A8A8A" stroke-width="2" stroke-linecap="round" stroke-linejoin="round"/>
</svg>
