<svg width="25" height="24" viewBox="0 0 25 24" fill="none" xmlns="http://www.w3.org/2000/svg">
<path fill-rule="evenodd" clip-rule="evenodd" d="M12.286 1.21065C12.6471 0.929784 13.1527 0.929784 13.5138 1.21065L22.5138 8.21065C22.7574 8.4001 22.8999 8.69141 22.8999 9V20C22.8999 20.7957 22.5838 21.5587 22.0212 22.1213C21.4586 22.6839 20.6956 23 19.8999 23H5.8999C5.10425 23 4.34119 22.6839 3.77858 22.1213C3.21597 21.5587 2.8999 20.7957 2.8999 20V9C2.8999 8.69141 3.04238 8.4001 3.28596 8.21065L12.286 1.21065ZM4.8999 9.48908V20C4.8999 20.2652 5.00526 20.5196 5.1928 20.7071C5.38033 20.8946 5.63469 21 5.8999 21H19.8999C20.1651 21 20.4195 20.8946 20.607 20.7071C20.7945 20.5196 20.8999 20.2652 20.8999 20V9.48908L12.8999 3.26686L4.8999 9.48908Z" fill="#8A8A8A"/>
<path fill-rule="evenodd" clip-rule="evenodd" d="M8.8999 12C8.8999 11.4477 9.34762 11 9.8999 11H15.8999C16.4522 11 16.8999 11.4477 16.8999 12V22C16.8999 22.5523 16.4522 23 15.8999 23C15.3476 23 14.8999 22.5523 14.8999 22V13H10.8999V22C10.8999 22.5523 10.4522 23 9.8999 23C9.34762 23 8.8999 22.5523 8.8999 22V12Z" fill="#8A8A8A"/>
</svg>
