<svg width="16" height="17" viewBox="0 0 16 17" fill="none" xmlns="http://www.w3.org/2000/svg">
<path d="M8 16.9665C6.89897 16.9665 5.86193 16.7562 4.88889 16.3354C3.91586 15.9141 3.06845 15.3423 2.34667 14.6199C1.62489 13.8975 1.05304 13.0501 0.631116 12.0777C0.20919 11.1052 -0.00118021 10.0682 4.97977e-06 8.96655C4.97977e-06 7.86196 0.210375 6.82403 0.631116 5.85277C1.05245 4.88092 1.6243 4.0344 2.34667 3.31322C3.06904 2.59203 3.91645 2.02018 4.88889 1.59766C5.86193 1.17692 6.89897 0.966553 8 0.966553C9.1046 0.966553 10.1425 1.17692 11.1138 1.59766C12.0856 2.019 12.9324 2.59085 13.6542 3.31322C14.376 4.03559 14.9476 4.88211 15.3689 5.85277C15.7896 6.82462 16 7.86255 16 8.96655C16 10.0676 15.7896 11.1046 15.3689 12.0777C14.9476 13.0507 14.3757 13.8981 13.6533 14.6199C12.931 15.3417 12.0844 15.9135 11.1138 16.3354C10.1431 16.7574 9.10519 16.9677 8 16.9665ZM8 16.0848C8.52148 15.4145 8.95171 14.7565 9.29067 14.1105C9.62904 13.4646 9.9043 12.7417 10.1164 11.9417H5.88356C6.11882 12.7867 6.39971 13.5322 6.72623 14.1781C7.05334 14.824 7.47793 15.4596 8 16.0848ZM6.86845 15.9514C6.45363 15.4625 6.07497 14.8581 5.73245 14.1381C5.38993 13.4187 5.13511 12.6863 4.968 11.9408H1.55912C2.06875 13.046 2.79082 13.9526 3.72534 14.6608C4.66045 15.3683 5.70815 15.7985 6.86845 15.9514ZM9.13156 15.9514C10.2919 15.7985 11.3396 15.3683 12.2747 14.6608C13.2092 13.9526 13.9313 13.046 14.4409 11.9408H11.0329C10.8077 12.6975 10.5241 13.4356 10.1822 14.155C9.83971 14.875 9.48948 15.4744 9.13156 15.9514ZM1.19645 11.0528H4.78311C4.71556 10.6877 4.66815 10.3322 4.64089 9.98611C4.61245 9.64062 4.59823 9.30077 4.59823 8.96655C4.59823 8.63233 4.61215 8.29248 4.64 7.94699C4.66786 7.60151 4.71526 7.24596 4.78223 6.88033H1.19734C1.10075 7.18848 1.02519 7.52418 0.970671 7.88744C0.916153 8.25011 0.888894 8.60981 0.888894 8.96655C0.888894 9.32329 0.915857 9.68329 0.969783 10.0465C1.02371 10.4098 1.09926 10.7449 1.19645 11.0519M5.672 11.0519H10.328C10.3956 10.6874 10.443 10.3378 10.4702 10.003C10.4987 9.66877 10.5129 9.32329 10.5129 8.96655C10.5129 8.60981 10.499 8.26433 10.4711 7.93011C10.4433 7.59588 10.3959 7.24625 10.3289 6.88122H5.67111C5.60415 7.24566 5.55674 7.59529 5.52889 7.93011C5.50104 8.26433 5.48711 8.60981 5.48711 8.96655C5.48711 9.32329 5.50104 9.66877 5.52889 10.003C5.55674 10.3372 5.60504 10.6868 5.672 11.0519ZM11.2178 11.0519H14.8036C14.9001 10.7443 14.9757 10.4092 15.0302 10.0465C15.0841 9.68329 15.1111 9.32329 15.1111 8.96655C15.1111 8.60981 15.0841 8.24981 15.0302 7.88655C14.9763 7.52329 14.9007 7.18818 14.8036 6.88122H11.2169C11.2844 7.24566 11.3319 7.60092 11.3591 7.94699C11.3876 8.29307 11.4018 8.63292 11.4018 8.96655C11.4018 9.30018 11.3879 9.64003 11.36 9.98611C11.3321 10.3322 11.2847 10.6877 11.2178 11.0528M11.0329 5.99233H14.4409C13.92 4.86403 13.2065 3.95737 12.3004 3.27233C11.3944 2.58729 10.3381 2.15144 9.13156 1.96477C9.54637 2.51055 9.91941 3.13485 10.2507 3.83766C10.5819 4.53989 10.8427 5.25811 11.0329 5.99233ZM5.88356 5.99233H10.1164C9.88178 5.15796 9.5923 4.40359 9.248 3.72922C8.90371 3.05485 8.48771 2.42789 8 1.84833C7.5123 2.42729 7.0963 3.05426 6.752 3.72922C6.40771 4.40418 6.11763 5.15855 5.88356 5.99233ZM1.56 5.99233H4.968C5.15823 5.2587 5.41897 4.54048 5.75023 3.83766C6.08148 3.13485 6.45452 2.51055 6.86934 1.96477C5.65215 2.15203 4.59319 2.59055 3.69245 3.28033C2.79171 3.97129 2.0806 4.875 1.55912 5.99144" fill="#282828"/>
</svg>
