<svg width="16" height="16" viewBox="0 0 16 16" fill="none" xmlns="http://www.w3.org/2000/svg">
<path d="M2.50522 0H7.51566C8.18008 0 8.8173 0.266165 9.28712 0.739941C9.75693 1.21372 10.0209 1.8563 10.0209 2.52632V5.89474H9.1858V2.52632C9.1858 2.07964 9.00984 1.65125 8.69663 1.3354C8.38342 1.01955 7.95861 0.842105 7.51566 0.842105H2.50522C2.06227 0.842105 1.63746 1.01955 1.32425 1.3354C1.01103 1.65125 0.835073 2.07964 0.835073 2.52632V13.4737C0.835073 13.9204 1.01103 14.3487 1.32425 14.6646C1.63746 14.9805 2.06227 15.1579 2.50522 15.1579H7.51566C7.95861 15.1579 8.38342 14.9805 8.69663 14.6646C9.00984 14.3487 9.1858 13.9204 9.1858 13.4737V10.1053H10.0209V13.4737C10.0209 14.1437 9.75693 14.7863 9.28712 15.2601C8.8173 15.7338 8.18008 16 7.51566 16H2.50522C1.84079 16 1.20358 15.7338 0.733762 15.2601C0.263942 14.7863 0 14.1437 0 13.4737V2.52632C0 1.8563 0.263942 1.21372 0.733762 0.739941C1.20358 0.266165 1.84079 0 2.50522 0ZM5.01044 7.57895H14.405L11.691 4.84211L12.2422 4.21053L16 8L12.2422 11.7895L11.691 11.1579L14.405 8.42105H5.01044V7.57895Z" fill="#F11515"/>
</svg>
