<svg width="16" height="16" viewBox="0 0 16 16" fill="none" xmlns="http://www.w3.org/2000/svg">
<path d="M8.05842 15.9521C5.81952 15.9521 3.91673 15.1744 2.35004 13.6191C0.783346 12.0638 0 10.1748 0 7.9521C0 5.9261 0.66482 4.16943 1.99446 2.6821C3.3241 1.19476 4.97071 0.316762 6.93427 0.0480957C6.98867 0.0480957 7.04206 0.0500957 7.09443 0.0540957C7.14681 0.0580957 7.19819 0.0637621 7.24855 0.0710955C6.90876 0.541762 6.63981 1.0651 6.4417 1.6411C6.2436 2.2171 6.14455 2.82076 6.14455 3.4521C6.14455 5.2301 6.77109 6.7411 8.02418 7.9851C9.27726 9.2291 10.7996 9.85143 12.5913 9.85209C13.2299 9.85209 13.8387 9.75376 14.4175 9.55709C14.9964 9.36043 15.5162 9.09343 15.9768 8.7561C15.9849 8.8061 15.9906 8.8571 15.994 8.9091C15.9973 8.9611 15.9993 9.0141 16 9.0681C15.7421 11.0168 14.8641 12.6511 13.3659 13.9711C11.8677 15.2911 10.0992 15.9514 8.05842 15.9521ZM8.05742 14.9521C9.53479 14.9521 10.8611 14.5478 12.0363 13.7391C13.2114 12.9304 14.0677 11.8764 14.6049 10.5771C14.2691 10.6604 13.9333 10.7271 13.5976 10.7771C13.2618 10.8271 12.926 10.8521 12.5903 10.8521C10.526 10.8521 8.76756 10.1314 7.31503 8.6901C5.8625 7.24876 5.13657 5.50276 5.13725 3.4521C5.13725 3.11876 5.16243 2.78543 5.21279 2.4521C5.26316 2.11876 5.33031 1.78543 5.41425 1.4521C4.10476 1.98543 3.04273 2.83543 2.22815 4.0021C1.41358 5.16876 1.00663 6.48543 1.0073 7.9521C1.0073 9.88543 1.69563 11.5354 3.07227 12.9021C4.44892 14.2688 6.10996 14.9521 8.05742 14.9521Z" fill="#282828"/>
</svg>
