<svg width="36" height="36" viewBox="0 0 36 36" fill="none" xmlns="http://www.w3.org/2000/svg">
<circle cx="18" cy="18" r="18" fill="#D9D9D9"/>
<path d="M26.3531 20.1091L24.6732 18.3169V15.9428C24.6713 14.3021 24.0992 12.7204 23.0675 11.5036C22.0359 10.2869 20.6179 9.5214 19.0879 9.35527V7.99805H17.8467V9.35527C16.3167 9.5214 14.8988 10.2869 13.8671 11.5036C12.8355 12.7204 12.2634 14.3021 12.2614 15.9428V18.3169L10.5815 20.1091C10.4651 20.2332 10.3997 20.4016 10.3997 20.5772V22.5633C10.3997 22.7389 10.465 22.9073 10.5814 23.0315C10.6978 23.1557 10.8557 23.2254 11.0202 23.2254H15.3644V23.7398C15.3506 24.5798 15.628 25.3957 16.1434 26.0309C16.6588 26.6661 17.3758 27.076 18.157 27.1819C18.5884 27.2275 19.024 27.1763 19.4358 27.0316C19.8476 26.8868 20.2264 26.6518 20.5479 26.3415C20.8693 26.0312 21.1264 25.6525 21.3025 25.2299C21.4786 24.8072 21.5698 24.35 21.5703 23.8875V23.2254H25.9144C26.079 23.2254 26.2368 23.1557 26.3532 23.0315C26.4696 22.9073 26.535 22.7389 26.535 22.5633V20.5772C26.5349 20.4016 26.4695 20.2332 26.3531 20.1091ZM20.3291 23.8875C20.3291 24.4142 20.1329 24.9194 19.7838 25.2919C19.4346 25.6644 18.9611 25.8736 18.4673 25.8736C17.9735 25.8736 17.5 25.6644 17.1508 25.2919C16.8017 24.9194 16.6056 24.4142 16.6056 23.8875V23.2254H20.3291V23.8875ZM25.2938 21.9013H11.6408V20.8513L13.3208 19.0591C13.4372 18.9349 13.5026 18.7666 13.5026 18.591V15.9428C13.5026 14.538 14.0257 13.1909 14.9567 12.1976C15.8878 11.2043 17.1506 10.6463 18.4673 10.6463C19.784 10.6463 21.0468 11.2043 21.9779 12.1976C22.909 13.1909 23.432 14.538 23.432 15.9428V18.591C23.4321 18.7666 23.4975 18.9349 23.6139 19.0591L25.2938 20.8513V21.9013Z" fill="#282828"/>
</svg>
