<svg width="15" height="18" viewBox="0 0 15 18" fill="none" xmlns="http://www.w3.org/2000/svg">
<path d="M14.1809 11.2319L12.6876 9.63887V7.52852C12.6859 6.07012 12.1774 4.66421 11.2603 3.58263C10.3433 2.50105 9.0829 1.82064 7.72289 1.67297V0.466553H6.61962V1.67297C5.2596 1.82064 3.99922 2.50105 3.08219 3.58263C2.16515 4.66421 1.65662 6.07012 1.6549 7.52852V9.63887L0.161629 11.2319C0.0581702 11.3423 3.12432e-05 11.4919 0 11.648V13.4135C0 13.5696 0.0581185 13.7193 0.16157 13.8296C0.265022 13.94 0.405332 14.002 0.551635 14.002H4.41308V14.4592C4.40084 15.2059 4.64742 15.9311 5.10553 16.4957C5.56364 17.0604 6.20103 17.4247 6.89544 17.5188C7.27892 17.5594 7.66612 17.5139 8.03213 17.3852C8.39814 17.2566 8.73486 17.0476 9.02062 16.7718C9.30639 16.496 9.53488 16.1594 9.6914 15.7837C9.84792 15.4081 9.929 15.0016 9.92943 14.5905V14.002H13.7909C13.9372 14.002 14.0775 13.94 14.1809 13.8296C14.2844 13.7193 14.3425 13.5696 14.3425 13.4135V11.648C14.3425 11.4919 14.2843 11.3423 14.1809 11.2319ZM8.82616 14.5905C8.82616 15.0587 8.6518 15.5078 8.34145 15.8389C8.03109 16.17 7.61016 16.356 7.17125 16.356C6.73235 16.356 6.31141 16.17 6.00106 15.8389C5.6907 15.5078 5.51635 15.0587 5.51635 14.5905V14.002H8.82616V14.5905ZM13.2392 12.825H1.10327V11.8916L2.59655 10.2986C2.7 10.1882 2.75814 10.0386 2.75817 9.8825V7.52852C2.75817 6.27988 3.22312 5.08239 4.05073 4.19947C4.87835 3.31656 6.00083 2.82054 7.17125 2.82054C8.34167 2.82054 9.46416 3.31656 10.2918 4.19947C11.1194 5.08239 11.5843 6.27988 11.5843 7.52852V9.8825C11.5844 10.0386 11.6425 10.1882 11.746 10.2986L13.2392 11.8916V12.825Z" fill="#282828"/>
</svg>
