<svg width="14" height="18" viewBox="0 0 14 18" fill="none" xmlns="http://www.w3.org/2000/svg">
<path d="M6.5 13.2099H7.5V7.55688H6.5V13.2099ZM7 5.97989C7.17467 5.97989 7.321 5.92089 7.439 5.80289C7.55633 5.68489 7.615 5.53889 7.615 5.36489C7.615 5.19022 7.556 5.04389 7.438 4.92589C7.32 4.80789 7.174 4.74922 7 4.74988C6.826 4.75055 6.68 4.80955 6.562 4.92688C6.444 5.04422 6.385 5.19055 6.385 5.36588C6.385 5.54122 6.444 5.68722 6.562 5.80389C6.68 5.92055 6.826 5.97922 7 5.97989ZM7 17.9419C4.99067 17.3452 3.32167 16.1282 1.993 14.2909C0.664333 12.4536 0 10.3832 0 8.07989V2.67188L7 0.0568848L14 2.67188V8.07989C14 10.3826 13.3357 12.4526 12.007 14.2899C10.6783 16.1272 9.00933 17.3439 7 17.9419ZM7 16.8809C8.73333 16.3309 10.1667 15.2309 11.3 13.5809C12.4333 11.9309 13 10.0976 13 8.08088V3.35488L7 1.12488L1 3.35488V8.07989C1 10.0966 1.56667 11.9299 2.7 13.5799C3.83333 15.2299 5.26667 16.3309 7 16.8809Z" fill="black"/>
</svg>
