<svg width="25" height="24" viewBox="0 0 25 24" fill="none" xmlns="http://www.w3.org/2000/svg">
<path fill-rule="evenodd" clip-rule="evenodd" d="M4.76449 15.4645C5.70217 14.5268 6.97394 14 8.30003 14H16.3C17.6261 14 18.8979 14.5268 19.8356 15.4645C20.7732 16.4021 21.3 17.6739 21.3 19V21C21.3 21.5523 20.8523 22 20.3 22C19.7477 22 19.3 21.5523 19.3 21V19C19.3 18.2044 18.984 17.4413 18.4213 16.8787C17.8587 16.3161 17.0957 16 16.3 16H8.30003C7.50438 16 6.74131 16.3161 6.17871 16.8787C5.6161 17.4413 5.30003 18.2044 5.30003 19V21C5.30003 21.5523 4.85231 22 4.30003 22C3.74774 22 3.30003 21.5523 3.30003 21V19C3.30003 17.6739 3.82681 16.4021 4.76449 15.4645Z" fill="#8A8A8A"/>
<path fill-rule="evenodd" clip-rule="evenodd" d="M12.3 4C10.6432 4 9.30003 5.34315 9.30003 7C9.30003 8.65685 10.6432 10 12.3 10C13.9569 10 15.3 8.65685 15.3 7C15.3 5.34315 13.9569 4 12.3 4ZM7.30003 7C7.30003 4.23858 9.5386 2 12.3 2C15.0615 2 17.3 4.23858 17.3 7C17.3 9.76142 15.0615 12 12.3 12C9.5386 12 7.30003 9.76142 7.30003 7Z" fill="#8A8A8A"/>
</svg>
