<svg width="44" height="44" viewBox="0 0 44 44" fill="none" xmlns="http://www.w3.org/2000/svg">
<circle cx="22" cy="22" r="22" fill="#0367A1"/>
<path d="M21.25 31C21.25 31.4142 21.5858 31.75 22 31.75C22.4142 31.75 22.75 31.4142 22.75 31H21.25ZM22.75 15C22.75 14.5858 22.4142 14.25 22 14.25C21.5858 14.25 21.25 14.5858 21.25 15L22.75 15ZM16.4673 18.472C16.1757 18.7662 16.1778 19.2411 16.472 19.5327C16.7662 19.8243 17.2411 19.8222 17.5327 19.528L16.4673 18.472ZM18.7473 17.237L19.28 17.765V17.765L18.7473 17.237ZM25.2527 17.237L25.7854 16.7091V16.7091L25.2527 17.237ZM26.4673 19.528C26.7589 19.8222 27.2338 19.8243 27.528 19.5327C27.8222 19.2411 27.8243 18.7662 27.5327 18.472L26.4673 19.528ZM21.6867 15.0199L21.5918 14.2759L21.5918 14.2759L21.6867 15.0199ZM22.3133 15.0199L22.4082 14.2759L22.4082 14.2759L22.3133 15.0199ZM22.75 31L22.75 15L21.25 15L21.25 31H22.75ZM17.5327 19.528L19.28 17.765L18.2146 16.7091L16.4673 18.472L17.5327 19.528ZM24.72 17.765L26.4673 19.528L27.5327 18.472L25.7854 16.7091L24.72 17.765ZM19.28 17.765C19.9891 17.0495 20.4772 16.5587 20.8907 16.2266C21.2924 15.904 21.5504 15.7933 21.7815 15.7639L21.5918 14.2759C20.9737 14.3547 20.4588 14.6496 19.9515 15.0571C19.456 15.455 18.8989 16.0186 18.2146 16.7091L19.28 17.765ZM25.7854 16.7091C25.1011 16.0186 24.544 15.455 24.0485 15.0571C23.5412 14.6496 23.0263 14.3547 22.4082 14.2759L22.2185 15.7639C22.4496 15.7933 22.7076 15.904 23.1093 16.2266C23.5228 16.5587 24.0109 17.0495 24.72 17.765L25.7854 16.7091ZM21.7815 15.7639C21.9266 15.7454 22.0734 15.7454 22.2185 15.7639L22.4082 14.2759C22.1371 14.2414 21.8629 14.2414 21.5918 14.2759L21.7815 15.7639Z" fill="white"/>
</svg>
