<svg width="16" height="16" viewBox="0 0 16 16" fill="none" xmlns="http://www.w3.org/2000/svg">
<path d="M9.20251 16H6.79948C6.65199 16 6.50971 15.9455 6.40005 15.8469C6.2904 15.7482 6.22113 15.6125 6.20559 15.4659L6.02766 13.7906C5.77928 13.7061 5.53662 13.6056 5.30122 13.4897L3.99204 14.5485C3.87746 14.6407 3.73283 14.6875 3.58592 14.6797C3.439 14.6719 3.30013 14.6101 3.19594 14.5063L1.49667 12.8072C1.39279 12.703 1.33103 12.5641 1.32324 12.4172C1.31545 12.2703 1.36219 12.1257 1.45447 12.0111L2.51368 10.7005C2.39761 10.4652 2.29696 10.2225 2.21236 9.97413L0.534182 9.79502C0.387583 9.7795 0.25191 9.71029 0.153287 9.60073C0.0546644 9.49117 6.44197e-05 9.349 0 9.20159V6.79841C6.44197e-05 6.651 0.0546644 6.50883 0.153287 6.39927C0.25191 6.28971 0.387583 6.2205 0.534182 6.20497L2.20957 6.02706C2.29417 5.77867 2.39482 5.53604 2.5109 5.3007L1.45169 3.99005C1.3594 3.87548 1.31267 3.73087 1.32046 3.58397C1.32824 3.43706 1.39 3.29821 1.49388 3.19403L3.19315 1.49493C3.29734 1.39106 3.43621 1.3293 3.58313 1.32152C3.73005 1.31373 3.87467 1.36046 3.98925 1.45274L5.30003 2.51144C5.53543 2.39558 5.77808 2.29507 6.02647 2.21055L6.2044 0.535325C6.21968 0.388251 6.289 0.25208 6.39894 0.153183C6.50887 0.054287 6.6516 -0.00029742 6.79948 1.21897e-06H9.20251C9.34999 -3.26548e-05 9.49228 0.0545177 9.60193 0.15314C9.71159 0.251762 9.78086 0.387477 9.7964 0.53413L9.97393 2.20935C10.2224 2.29388 10.4652 2.39438 10.7008 2.51025L12.0111 1.45154C12.1257 1.35927 12.2703 1.31254 12.4173 1.32033C12.5642 1.32811 12.7031 1.38986 12.8072 1.49373L14.5065 3.19284C14.6104 3.29701 14.6722 3.43587 14.6799 3.58277C14.6877 3.72968 14.641 3.87429 14.5487 3.98886L13.4895 5.2995C13.6054 5.53492 13.7061 5.77754 13.7908 6.02587L15.4662 6.20378C15.6127 6.2194 15.7483 6.28865 15.8469 6.3982C15.9454 6.50775 15.9999 6.64987 16 6.79721V9.2004C16.0003 9.3477 15.9461 9.48991 15.8478 9.59967C15.7496 9.70944 15.6143 9.77902 15.4678 9.79502L13.7924 9.97293C13.7076 10.2213 13.607 10.4639 13.4911 10.6993L14.5503 12.0099C14.6426 12.1245 14.6893 12.2691 14.6815 12.416C14.6737 12.5629 14.612 12.7018 14.5081 12.806L12.8088 14.5063C12.7046 14.6101 12.5658 14.6719 12.4189 14.6797C12.2719 14.6875 12.1273 14.6407 12.0127 14.5485L10.7024 13.4897C10.4668 13.6056 10.224 13.7061 9.97552 13.7906L9.79799 15.4659C9.78242 15.6128 9.71293 15.7487 9.60293 15.8474C9.49294 15.9461 9.35027 16.0004 9.20251 16ZM7.33565 14.806H8.66474L8.82754 13.2712C8.84032 13.1511 8.88924 13.0377 8.96784 12.9459C9.04644 12.8542 9.15103 12.7885 9.26779 12.7574C9.68835 12.6453 10.0921 12.4776 10.4683 12.2587C10.5731 12.1977 10.6939 12.17 10.8148 12.1793C10.9357 12.1886 11.0508 12.2345 11.145 12.3108L12.3455 13.2808L13.2853 12.3411L12.3137 11.1443C12.2373 11.0501 12.1914 10.935 12.1821 10.8141C12.1728 10.6932 12.2005 10.5724 12.2615 10.4677C12.4799 10.0917 12.6471 9.68828 12.7587 9.26806C12.7898 9.15126 12.8556 9.04664 12.9474 8.96804C13.0392 8.88944 13.1528 8.84056 13.273 8.82786L14.8074 8.66468V7.33572L13.273 7.17254C13.1528 7.15984 13.0392 7.11096 12.9474 7.03236C12.8556 6.95376 12.7898 6.84914 12.7587 6.73234C12.6472 6.31198 12.48 5.9084 12.2615 5.53234C12.2005 5.4276 12.1728 5.30677 12.1821 5.1859C12.1914 5.06504 12.2373 4.94987 12.3137 4.85572L13.2837 3.65532L12.3439 2.71562L11.1434 3.68557C11.0492 3.76193 10.9341 3.80781 10.8132 3.81713C10.6923 3.82644 10.5715 3.79874 10.4667 3.73771C10.0907 3.51948 9.6872 3.3523 9.26699 3.2406C9.15023 3.20954 9.04565 3.1438 8.96704 3.05206C8.88844 2.96032 8.83952 2.84689 8.82675 2.72677L8.66554 1.19403H7.33565L7.17285 2.72876C7.16005 2.84893 7.11107 2.9624 7.03239 3.05415C6.95372 3.14589 6.84904 3.2116 6.73221 3.24259C6.3123 3.3548 5.90924 3.52251 5.53368 3.74129C5.42894 3.80232 5.30809 3.83002 5.18721 3.82071C5.06634 3.8114 4.95116 3.76551 4.857 3.68915L3.65768 2.71761L2.71828 3.65731L3.68872 4.85771C3.76503 4.95191 3.81084 5.06709 3.82009 5.18795C3.82933 5.30882 3.80156 5.42963 3.74047 5.53433C3.52239 5.91043 3.3552 6.31383 3.24331 6.73393C3.21225 6.85068 3.1465 6.95525 3.05475 7.03385C2.963 7.11244 2.84956 7.16136 2.72943 7.17413L1.19455 7.33731V8.66587L2.72943 8.82905C2.84956 8.84183 2.963 8.89074 3.05475 8.96934C3.1465 9.04793 3.21225 9.15251 3.24331 9.26925C3.35518 9.68893 3.52222 10.0919 3.74007 10.4677C3.80116 10.5724 3.82893 10.6932 3.81969 10.814C3.81045 10.9349 3.76463 11.0501 3.68833 11.1443L2.71828 12.3427L3.65808 13.2824L4.85899 12.3124C4.95315 12.2361 5.06833 12.1902 5.1892 12.1809C5.31008 12.1716 5.43093 12.1993 5.53567 12.2603C5.91156 12.4786 6.31489 12.6458 6.735 12.7574C6.85183 12.7884 6.9565 12.8541 7.03518 12.9459C7.11386 13.0376 7.16284 13.1511 7.17564 13.2712L7.33565 14.806Z" fill="#282828"/>
<path d="M8.00093 11.2165C7.2817 11.2165 6.57864 11.0031 5.98066 10.6035C5.38268 10.2039 4.91663 9.63599 4.64145 8.97156C4.36627 8.30712 4.29431 7.57601 4.43467 6.87068C4.57504 6.16535 4.92142 5.51747 5.43002 5.00898C5.93862 4.50048 6.5866 4.15421 7.29201 4.01393C7.99743 3.87366 8.7286 3.94569 9.39308 4.22092C10.0576 4.49615 10.6255 4.96221 11.0251 5.56018C11.4246 6.15814 11.6379 6.86115 11.6379 7.58031C11.6369 8.54444 11.2533 9.46878 10.5715 10.1505C9.88963 10.8322 8.96516 11.2156 8.00093 11.2165ZM8.00093 5.13812C7.51788 5.1382 7.0457 5.2815 6.6441 5.5499C6.24249 5.8183 5.9295 6.19974 5.7447 6.646C5.5599 7.09226 5.51159 7.58329 5.60588 8.057C5.70016 8.53071 5.93281 8.96583 6.27441 9.30734C6.616 9.64885 7.0512 9.8814 7.52498 9.9756C7.99875 10.0698 8.48983 10.0214 8.9361 9.83656C9.38237 9.65171 9.7638 9.33868 10.0322 8.93708C10.3005 8.53547 10.4438 8.06331 10.4438 7.58031C10.443 6.93276 10.1854 6.31195 9.72743 5.8541C9.26946 5.39625 8.64855 5.13875 8.00093 5.13812Z" fill="#282828"/>
</svg>
